<svg xmlns="http://www.w3.org/2000/svg" xmlns:xlink="http://www.w3.org/1999/xlink" width="485" height="300" viewBox="0 0 485 300"><defs><path id="a" d="M478.46 28.43c.04-.08.07-.1.07-.1 5.42-5.75 6.87-11.81 6.87-16.85 0-6.66-2.63-11.53-2.7-11.48-10.44 11.98-60 59.25-132.54 65.62v-6.78c0-.39-.21-.52-.54-.52h-77.98c-.56-3.66-1.04-7.17-1.46-10.3V48c-.01-.06-.13-.89-.13-.89-1.09-7.82-2.04-14.59-3.54-18.62 3.43-2.44 6.3-5.85 8.32-9.89 1.88-3.77 2.91-7.89 2.88-11.61 0-.05 0-.32-.01-.8-.41.25-.63.39-.68.41-.99.62-3.57 1.62-3.59 1.63-3.69 1.37-10.31 2.84-20.88 2.08-5.67-.42-10.75-.53-15.1-.34-4.52.2-8.16.73-10.81 1.56-2.92.92-5.22 2.1-7.03 3.63-1.57 1.32-2.44 2.63-3.02 3.54-4.55-.29-10.4.25-14.65 1.37-2.86.76-4.96 2.08-6.41 4.02-1.46 1.95-2.18 4.42-2.21 7.56v.02c-.01 1.85.39 4.98 1.54 8.24 1.48 4.22 3.81 7.69 6.91 10.32.04.03.25.21.63.53.06-.49.1-.76.1-.82.04-.2.8-5.07 8.07-5.26.69 0 1.91.01 2.45.02 1.62.06 2.81.46 3.36 1.13.54.65.69 1.78.43 3.35-.02.15-.66 3.88-1.86 7.87v.01c0 .01-.01.02-.01.02-.01.07-.15.53-.35 1.24h-78.8c-.33 0-.55.13-.55.52v6.78C62.71 59.25 13.15 11.98 2.71 0 2.65-.04.01 4.82 0 11.48c0 5.04 1.46 11.1 6.88 16.86 0 0 .03.01.07.09-2.18 5.38-5.12 19.89 9.33 32.09-.25 1.35-.49 3.46-.49 5.64 0 7.25 2.63 18.02 16.01 27 0 0 .94.63 1.54 1.03-.21 2.83.16 23.84 30.24 31.26 2.96 8.64 11.23 19.6 31.49 20.97 5.68 9.26 13.88 13.99 25.07 13.89 2.65 4.14 7.86 7.49 14.06 8.99 4.09.96 8.25 1.07 12.34.28 1.29 1 3.66 2.39 6.77 3.61 0 0 .02.01.06.02-3.6 2.62-5.37 5.83-6.59 9.61-1.96 6.02-1.97 11.74 4.37 20.04 2.14 2.95 3.35 5.46 4 8.37.64 2.86.77 6.13.77 10.82 0 2.95.6 5.72 1.79 8.22 1.18 2.48 2.95 4.62 5.09 6.18 1.24.91 2.65 1.63 4.17 2.14-.93 1.3-1.65 2.71-2.13 4.19-.81 2.52-.97 5.28-.47 7.98.51 2.73 1.65 5.32 3.38 7.71 2.76 3.79 4.58 6.52 5.74 9.2 1.18 2.75 1.69 5.48 1.69 9.13-.26 10.43 3.11 15.06 8.24 18.78 5.13 3.73 10.57 5.51 20.41 2.04 3.47-1.13 6.23-1.49 9.21-1.22 2.9.28 6.06 1.17 10.52 2.61 2.81.92 5.62 1.2 8.37.84 2.73-.36 5.3-1.37 7.45-2.92 1.25-.91 2.38-2.02 3.33-3.32.94 1.3 2.07 2.41 3.33 3.32 2.13 1.55 4.71 2.56 7.44 2.92 2.75.36 5.56.08 8.37-.84 4.46-1.44 7.61-2.33 10.53-2.61 2.97-.27 5.73.09 9.2 1.22 9.84 3.47 15.28 1.69 20.41-2.04 5.13-3.72 8.49-8.35 8.24-18.78 0-3.65.51-6.38 1.69-9.13 1.16-2.68 2.98-5.41 5.74-9.2 1.73-2.39 2.87-4.98 3.38-7.71.5-2.7.34-5.46-.48-7.98a14.55 14.55 0 0 0-2.13-4.19c1.53-.51 2.94-1.23 4.19-2.14 2.13-1.56 3.89-3.7 5.08-6.18 1.18-2.5 1.79-5.27 1.78-8.22.01-4.69.14-7.96.78-10.82.65-2.91 1.86-5.42 4-8.37 6.34-8.3 6.33-14.02 4.38-20.04-1.23-3.78-3.01-6.99-6.6-9.61.04-.01.06-.02.06-.02 3.11-1.22 5.48-2.61 6.77-3.61 4.09.79 8.25.68 12.34-.28 6.2-1.5 11.4-4.85 14.06-8.99 11.18.1 19.39-4.63 25.06-13.89 20.27-1.37 28.54-12.33 31.5-20.97 30.09-7.42 30.45-28.43 30.24-31.26.6-.4 1.53-1.03 1.53-1.03 13.4-8.98 16.02-19.75 16.02-27 0-2.18-.24-4.29-.5-5.64 14.45-12.2 11.51-26.71 9.34-32.09M205.11 93.36c-5.83-.57-18.17-2.99-27.71-13.14-2.18-2.33-4.76-4.73-7.15-6.53 4.48.39 30.29 2.71 39.64 3.55-1.34 4.98-2.99 10.44-4.78 16.12m75.19 0c-1.8-5.68-3.45-11.14-4.79-16.12 9.36-.84 35.17-3.16 39.65-3.55-2.39 1.8-4.97 4.2-7.15 6.53-9.54 10.15-21.88 12.57-27.71 13.14Z"/><path id="b" d="M242.71 213.98c-5.81 8.71-17.56 11.06-26.26 5.25-8.71-5.8-11.06-17.55-5.25-26.26h-.01a37.692 37.692 0 0 0-6.36 21.01c0 20.92 16.96 37.88 37.88 37.88 13.14 0 24.71-6.71 31.5-16.87 5.8-8.7 3.46-20.46-5.25-26.26-8.7-5.8-20.46-3.45-26.25 5.25Z"/><path id="c" d="M150.04 162.38a2.696 2.696 0 0 0-3.7.95c-.76 1.28-.33 2.94.96 3.69 1.27.77 2.93.34 3.69-.94.76-1.29.34-2.94-.95-3.7Z"/><path id="d" d="M211.19 192.97h.01c-5.81 8.71-3.46 20.46 5.25 26.26 8.7 5.81 20.45 3.46 26.26-5.25 5.79-8.7 17.55-11.05 26.25-5.25 8.71 5.8 11.05 17.56 5.25 26.26a37.675 37.675 0 0 0 6.37-21.01c0-20.91-16.96-37.87-37.87-37.87-13.15 0-24.73 6.7-31.52 16.86Z"/><path id="e" d="M226.78 11.96h.01-.01Z"/><path id="f" d="M226.78 11.96h.01-.01Z"/><path id="g" d="m331.48 108.99.11-.21 16.11-34.95 16.24 35.16h-32.46Z"/><path id="h" d="M361.07 93.51c-.51-1.1-4.64-9.89-5.15-10.99 11.99-1.64 23.37-4.17 34.03-7.28-.49 3.57-2.82 11.64-13.74 15.46-4.84 1.69-9.99 2.54-15.14 2.81Z"/><path id="i" d="M367.86 107.97c-.51-1.09-4.6-9.82-5.12-10.91 5.02-.34 10.04-1.22 14.78-2.87.64-.23 1.26-.47 1.87-.73-1.76 7.17-5.61 12.02-11.53 14.51Z"/><path id="j" d="M293.91 166.62c-.34-.36-.79-.52-1.28-.53-.21-.01-.41.03-.6.09-.27.09-.52.23-.72.44-1.77 1.81-15.93 16.25-17.69 18.05a42.02 42.02 0 0 0-4.1-3.79c1.59-2.12 14.28-19.06 15.86-21.18 2.25-3.09 5.55-5.28 8.99-5.3 3.71 0 7.06 1.61 9.64 5.09 2.88 3.98 5.25 6.97 7.95 9.3-5.71 3.99-19.9 13.9-32.9 22.99a40.77 40.77 0 0 0-3.42-4.82c1.83-1.77 16.44-15.95 18.27-17.73.36-.33.55-.82.53-1.28-.01-.51-.17-.97-.53-1.33Z"/><path id="k" d="M271.93 150.64c-.45-.23-.95-.23-1.44-.08-.44.12-.84.45-1.05.89-1.12 2.29-10.09 20.57-11.21 22.85-1.83-.71-3.71-1.3-5.64-1.76 4.62-15.17 9.66-31.73 11.69-38.39 3.06 1.86 6.63 3.17 11.31 4.7 4.1 1.36 6.66 4.05 7.82 7.59 1.04 3.27-.03 7.08-2.27 10.18-1.52 2.16-13.71 19.47-15.24 21.63a40.59 40.59 0 0 0-4.86-2.73c1.17-2.24 10.52-20.16 11.69-22.39.14-.26.19-.55.19-.83 0-.2-.02-.4-.1-.6-.16-.46-.44-.84-.89-1.06Z"/><path id="l" d="M224.37 175.52c-1.68.8-3.3 1.71-4.86 2.73-1.53-2.16-13.72-19.47-15.24-21.63-2.24-3.1-3.32-6.91-2.27-10.18 1.16-3.54 3.72-6.23 7.82-7.59 4.68-1.53 8.25-2.84 11.31-4.7 2.03 6.66 7.07 23.22 11.69 38.39a42.92 42.92 0 0 0-5.64 1.76c-1.12-2.28-10.09-20.56-11.21-22.85-.21-.44-.61-.77-1.06-.89-.49-.15-.98-.15-1.43.08-.44.22-.73.6-.89 1.06-.08.2-.1.4-.1.6 0 .28.05.57.19.83l11.69 22.39Z"/><path id="m" d="M209.77 186.96c-1.25 1.52-2.4 3.13-3.43 4.82-12.99-9.09-27.18-19-32.89-22.99 2.7-2.33 5.07-5.32 7.95-9.3 2.58-3.48 5.92-5.09 9.64-5.09 3.44.02 6.74 2.21 8.99 5.3 1.59 2.12 14.28 19.06 15.86 21.18a41.908 41.908 0 0 0-4.09 3.79c-1.77-1.8-15.93-16.24-17.7-18.05-.2-.21-.45-.35-.72-.44-.19-.06-.39-.1-.6-.09-.49.01-.94.17-1.28.53-.36.35-.52.82-.53 1.33-.02.46.18.95.53 1.28 0 0 16.45 15.96 18.27 17.73Z"/><path id="n" d="M338.79 84.16c-.31.66-2.8 5.92-3.12 6.58-3.13-.81-5.88-1.71-8.06-2.58 3.43-2.24 7.21-3.63 11.18-4Z"/><path id="o" d="M330.2 102.34c-4.84-2.43-8.73-4.85-10.87-6.26.19-.24.39-.48.58-.72 1.36-1.75 2.84-3.32 4.41-4.7 2.42 1.08 5.8 2.28 9.81 3.35-.79 1.67-3.54 7.5-3.93 8.33Z"/><path id="p" d="M285.7 109.94c-1.25-3.78-2.5-7.56-3.71-11.28 6.67-.71 19.53-3.58 30.09-14.85 6.54-6.97 15.05-12.85 27.29-12.78 1.88.02 3.76-.01 5.65-.08-.42.89-3.81 8.07-4.24 8.97-8.28.05-17.49 3.53-24.4 12.75-7.26 9.72-19.28 16.15-30.68 17.27Z"/><path id="q" d="M289.64 150.14c-.25.08-.5.17-.75.27.02-.26.03-.53.03-.79 0-1.57-.24-3.08-.72-4.51-.03-.09-.06-.18-.09-.28.68-.87 1.38-1.95 2.01-3.28.74 2.93 1.32 5.63 1.67 8.07-.72.12-1.45.29-2.15.52Z"/><path id="r" d="M278.5 135.05c.67-.49 4.77-3.94 6.35-11.11 1.56 4.79 3.02 9.39 4.21 13.64-.67 1.75-1.52 3.2-2.34 4.31-1.83-2.99-4.68-5.37-8.22-6.84Z"/><path id="s" d="M278.7 105.58c.01-.02.04-.04.05-.06 1.09 3.31 2.2 6.65 3.3 9.97.01.02.06.18.07.2.35 1.06.71 2.12 1.06 3.18-.21 7.14-3.98 11.81-5.5 12.81-1.53-.99-5.22-5.55-5.51-12.55 1.89-1.87 5.3-6.18 6.53-13.55Z"/><path id="t" d="M267.47 130.73c1.23-1.35 2.46-3.23 3.29-5.67 1.27 4.69 3.61 7.62 5 9.03-3.4-1.13-6.03-2.12-8.29-3.36Z"/><path id="u" d="M276.72 103.23c-1.45-.9-4.9-4.95-5.66-11.27.48-.41 1.46-1.31 2.48-2.78 1.29 4.24 2.7 8.66 4.16 13.15-.37.41-.7.72-.98.9Z"/><path id="v" d="M276.06 106.67c-1.59 5.73-4.59 9.29-5.92 10.15-1.45-.94-4.84-5.01-5.72-11.58 1.09-.95 3.71-3.64 5.28-8.39 2 6.7 6.1 9.67 6.35 9.81l.01.01Z"/><path id="w" d="M257.85 91.57c1.29-1.2 3.91-4.14 5.33-9.15 1.42 5.01 4.04 7.95 5.33 9.15-.8 5.92-3.95 9.74-5.33 10.64-1.37-.9-4.53-4.72-5.33-10.64Z"/><path id="x" d="M251.05 78.28c1.3-1.2 3.9-4.14 5.3-9.12 1.42 4.98 4.02 7.92 5.31 9.12-.83 5.83-3.94 9.6-5.31 10.48-1.35-.88-4.46-4.65-5.3-10.48Z"/><path id="y" d="M249.53 102.21c-1.37-.9-4.53-4.72-5.33-10.64 1.29-1.2 3.91-4.14 5.33-9.15 1.42 5.01 4.04 7.95 5.33 9.15-.8 5.92-3.96 9.74-5.33 10.64Z"/><path id="z" d="M237.39 78.28c1.3-1.2 3.9-4.14 5.32-9.12 1.4 4.98 4.01 7.92 5.3 9.12-.84 5.83-3.94 9.6-5.3 10.48-1.37-.88-4.48-4.65-5.32-10.48Z"/><path id="A" d="M235.88 102.21c-1.37-.9-4.53-4.72-5.33-10.64 1.29-1.2 3.91-4.14 5.33-9.15 1.42 5.01 4.04 7.95 5.33 9.15-.8 5.92-3.96 9.74-5.33 10.64Z"/><path id="B" d="M223.74 78.28c1.3-1.2 3.9-4.14 5.31-9.12 1.41 4.98 4.01 7.92 5.31 9.12-.83 5.83-3.95 9.6-5.31 10.48-1.36-.88-4.47-4.65-5.31-10.48Z"/><path id="C" d="M222.23 102.21c-1.38-.9-4.53-4.72-5.33-10.64 1.29-1.2 3.91-4.14 5.33-9.15 1.42 5.01 4.03 7.95 5.33 9.15-.8 5.92-3.96 9.74-5.33 10.64Z"/><path id="D" d="M215.27 116.82c-1.34-.86-4.33-4.41-5.92-10.15h.01c.25-.15 4.34-3.12 6.34-9.82 1.58 4.76 4.19 7.44 5.29 8.39-.89 6.58-4.27 10.65-5.72 11.58Z"/><path id="E" d="M195.77 150.14c-.71-.23-1.43-.4-2.15-.52.36-2.44.93-5.14 1.67-8.07.63 1.33 1.33 2.41 2.01 3.28-.03.1-.07.19-.09.28-.48 1.43-.72 2.94-.72 4.51 0 .26.01.53.03.79-.25-.1-.5-.19-.75-.27Z"/><path id="F" d="M200.56 123.94c1.57 7.17 5.69 10.62 6.35 11.11-3.54 1.47-6.4 3.85-8.22 6.84-.82-1.11-1.67-2.56-2.35-4.31 1.2-4.25 2.66-8.85 4.22-13.64Z"/><path id="G" d="M203.29 115.69c.01-.02.06-.18.07-.2 1.1-3.31 2.2-6.65 3.3-9.97.02.02.04.04.05.06 1.23 7.37 4.65 11.68 6.53 13.55-.3 7-3.98 11.56-5.5 12.55-1.53-1-5.29-5.67-5.51-12.81.35-1.06.71-2.12 1.06-3.18Z"/><path id="H" d="M217.93 130.73c-2.24 1.24-4.89 2.23-8.29 3.36 1.41-1.41 3.74-4.34 5.01-9.03.83 2.44 2.06 4.32 3.28 5.67Z"/><path id="I" d="M207.7 102.33c1.46-4.48 2.87-8.9 4.17-13.15 1.02 1.46 2 2.37 2.48 2.78-.76 6.32-4.21 10.37-5.67 11.27-.26-.18-.6-.49-.98-.9Z"/><path id="J" d="M203.42 98.66c-1.21 3.72-2.46 7.5-3.71 11.28-11.4-1.12-23.42-7.55-30.68-17.27-6.9-9.22-16.12-12.7-24.4-12.75-.43-.9-3.82-8.08-4.24-8.97 1.89.07 3.77.1 5.65.08 12.24-.07 20.74 5.81 27.29 12.78 10.56 11.27 23.42 14.14 30.09 14.85Z"/><path id="K" d="M149.74 90.74c-.31-.66-2.81-5.92-3.12-6.58 3.97.37 7.74 1.76 11.18 4-2.18.87-4.93 1.77-8.06 2.58Z"/><path id="L" d="m165.5 95.36.57.72c-2.13 1.41-6.02 3.83-10.86 6.26-.39-.83-3.54-7.49-3.93-8.33 4.01-1.07 7.38-2.27 9.8-3.35 1.58 1.38 3.06 2.95 4.42 4.7Z"/><path id="M" d="M156.78 105.67c5.39-2.73 9.59-5.43 11.66-6.83a50.72 50.72 0 0 0 4.96 4.79c-4.2 5.02-17.43 18.98-34.57 18.75-9.76-.13-14.8-4.92-17.19-8.43 3.77 1.92 9.4 3.91 16.07 3.91 10.73 0 18.46-4.97 20.63-6.78.7-.61.5-1.04.29-1.5-.37-.78-1.67-3.52-1.85-3.91Z"/><path id="N" d="M182.01 109.34c-2.4 4.54-11.67 20.03-27.05 22.62-9.25 1.55-13.94-3.2-15.82-5.88 19.16.06 32.93-15.03 37.11-20.24a44.67 44.67 0 0 0 5.76 3.5Z"/><path id="O" d="M192.03 112.96c-1.72 5.2-6.75 17.9-15.67 23.07-8.34 4.78-14.57 1.41-17.65-1.16 15.72-4.3 24.38-19.7 26.56-24.06 2.16.88 4.41 1.6 6.76 2.15Z"/><path id="P" d="M195.59 113.67c.91.14 1.82.27 2.76.37-2.83 8.48-5.56 16.69-7.5 23.87-5.32 4.37-11.43 3.13-14.31 2.15.58-.28 1.16-.59 1.76-.94 10.47-6 15.66-20.2 17.29-25.45Z"/><path id="Q" d="M216.06 120.23c.38-.26 4.22-3.23 6.22-9.74 2.13 6.05 5.79 8.83 6.02 8.97l.4.29c-1.09 1.17-2.16 2.52-3.23 4.07-1.54 2.13-3.04 3.73-4.7 5.04-1.94-1.49-4.13-4.47-4.71-8.63Z"/><path id="R" d="M229.05 95.87c1.57 5.53 4.61 8.54 5.69 9.46-1.13 5.96-4.31 9.81-5.69 10.71-1.37-.9-4.55-4.75-5.68-10.71 1.08-.92 4.12-3.93 5.68-9.46Z"/><path id="S" d="M238.69 114.02c-1.46.25-3.03.71-4.6 1.52-.43.22-.86.46-1.27.73 1.19-1.63 2.48-3.93 3.39-6.94.74 1.91 1.63 3.46 2.48 4.69Z"/><path id="T" d="M242.71 95.87c1.41 5.01 4.03 7.95 5.32 9.14-1.17 4.42-3.41 7.46-4.79 8.7h-1.08c-1.38-1.24-3.61-4.28-4.78-8.7 1.29-1.19 3.91-4.13 5.33-9.14Z"/><path id="U" d="M252.59 116.27c-.42-.27-.84-.51-1.27-.73-1.58-.81-3.14-1.27-4.6-1.52.85-1.23 1.74-2.78 2.48-4.69.91 3.01 2.2 5.31 3.39 6.94Z"/><path id="V" d="M256.35 95.87c1.58 5.53 4.6 8.54 5.69 9.46-1.13 5.96-4.3 9.81-5.69 10.71-1.37-.9-4.55-4.75-5.68-10.71 1.09-.92 4.12-3.93 5.68-9.46Z"/><path id="W" d="M257.11 119.46c.23-.14 3.89-2.92 6.02-8.97 2 6.51 5.84 9.48 6.23 9.74-.59 4.16-2.78 7.14-4.73 8.63-1.65-1.31-3.15-2.91-4.7-5.05-1.06-1.54-2.13-2.89-3.22-4.06.08-.05.32-.23.4-.29Z"/><path id="X" d="M289.82 113.67c1.62 5.25 6.82 19.45 17.29 25.45.59.35 1.18.66 1.76.94-2.89.98-8.99 2.22-14.31-2.15-1.94-7.18-4.68-15.39-7.5-23.87.93-.1 1.85-.22 2.76-.37Z"/><path id="Y" d="M300.14 110.81c2.18 4.36 10.84 19.76 26.55 24.06-3.08 2.57-9.3 5.94-17.64 1.16-8.92-5.17-13.94-17.87-15.67-23.07 2.36-.55 4.61-1.27 6.76-2.15Z"/><path id="Z" d="M309.16 105.84c4.19 5.21 17.95 20.3 37.1 20.24-1.86 2.68-6.56 7.43-15.81 5.88-15.38-2.59-24.65-18.08-27.05-22.62 2-1.02 3.92-2.18 5.76-3.5Z"/><path id="aa" d="M316.97 98.84c2.07 1.4 6.26 4.1 11.66 6.83-.19.39-1.67 3.52-1.85 3.91-.21.46-.41.89.29 1.5 2.17 1.81 9.9 6.78 20.63 6.78 6.68 0 12.29-1.99 16.07-3.91-2.39 3.51-7.43 8.3-17.19 8.43-17.14.23-30.37-13.73-34.57-18.75a50.72 50.72 0 0 0 4.96-4.79Z"/><path id="ab" d="M345.25 65.88s-56.53 4.6-71.13 5.86c-.62-2.65-1.13-5.11-1.49-7.33v-.03c-.06-.31-.11-.62-.17-.93h72.79v2.43Z"/><path id="ac" d="M270.01 88.76c-1.36-.88-4.48-4.66-5.31-10.48 1.03-.98 2.86-3.07 4.1-6.44.97 4.24 2.25 8.97 3.74 13.98-.92 1.53-1.91 2.54-2.53 2.94Z"/><path id="ad" d="M213.19 39.49h-.01c-.62-.01-1.93-.03-2.61-.03-1.25 0-6.86.12-8.42 3.5a21.015 21.015 0 0 1-2.63-5.28c-.66-1.98-1-4.05-.99-5.99.03-1.99.41-3.45 1.17-4.48.73-.97 1.9-1.65 3.58-2.11 3.81-1 9.29-1.49 13.31-1.18 0 0 .01.01.03.01h.03c.78.04 1.22.07 1.31.07 1.95.09 7.4 3.21 10.73 8.4 0 0 11.68-2.18 19.58-9.89 0 0-14.7 1.5-26.89-.23-.2-.02-.63-.21-.39-.73 0 0 .05-.13.17-.31 0-.01.01-.02.01-.03.96-1.45 2.47-3.29 7.03-4.7h.01v-.01c2.18-.69 5.45-1.15 9.47-1.32 4.14-.18 9.03-.07 14.5.32 8.26.6 14.4-.09 18.75-1.11-1.26 3.31-3.56 7.24-7.78 10.09h-.01v.01l-1.48 1.02-1.59 1.1.76 1.78c.41.98.63 1.52.68 1.63 1.35 3.37 2.29 10.06 3.38 17.81.02.09.12.81.13.9.65 4.87 1.45 10.63 2.47 16.53.02.11.04.21.05.32-.31 5.45-2.99 8.99-4.32 9.89h-.08c-1.59-1.08-5.42-5.91-5.48-13.26h-2.61c-.05 7.35-3.89 12.18-5.48 13.26h-.08c-1.59-1.08-5.42-5.91-5.48-13.26h-2.61c-.06 7.35-3.89 12.18-5.48 13.26h-.08c-1.59-1.08-5.43-5.91-5.47-13.26H227.75c-.06 7.35-3.89 12.18-5.49 13.26h-.07c-1.29-.87-3.84-4.21-4.29-9.36.87-3.42 1.99-7.36 2.05-7.58 1.32-4.4 1.98-8.34 2.01-8.51V50c.5-3.1-.03-5.62-1.55-7.47-1.54-1.87-4.02-2.92-7.2-3.04h-.02Z"/><path id="ae" d="M215.4 88.76c-.62-.4-1.61-1.41-2.52-2.94 1.48-5.01 2.76-9.74 3.73-13.98 1.24 3.37 3.07 5.46 4.1 6.44-.84 5.82-3.95 9.6-5.31 10.48Z"/><path id="af" d="M213.21 63.45c-.38 1.43-.74 2.88-1 4.09 0 0 0 .01-.01.02v.03c-.27 1.32-.57 2.71-.92 4.16-15.21-1.32-71.11-5.87-71.11-5.87v-2.43h73.04Z"/><path id="ag" d="m153.82 108.78.11.21h-32.45l16.23-35.16 16.11 34.95Z"/><path id="ah" d="M122.67 97.06c-.52 1.09-4.61 9.82-5.12 10.91-5.92-2.49-9.78-7.34-11.53-14.51.6.26 1.23.5 1.88.73 4.73 1.65 9.75 2.53 14.77 2.87Z"/><path id="ai" d="M129.49 82.52c-.52 1.1-4.64 9.89-5.16 10.99-5.14-.27-10.3-1.12-15.13-2.81-10.92-3.82-13.25-11.89-13.74-15.46 10.66 3.11 22.04 5.64 34.03 7.28Z"/><path id="aj" d="M135.05 70.66c-.38.8-3.41 7.26-3.78 8.07C68.08 71.06 23.79 37.43 9.93 24.02 4.9 19.15 4.32 13.3 5.34 10.15 35.64 41 87.38 67.23 135.05 70.66Z"/><path id="ak" d="M91.47 74.04c.16 2.32 1.11 8.83 6.64 14.25-25.21-3.1-59.62-15.09-78.39-31.55C8.05 46.52 9.38 36.33 11.29 31.01c13.18 11.76 41.73 31.08 80.18 43.03Z"/><path id="al" d="M101.85 92.37c.82 4.29 2.44 8.77 5.45 12.51-21.95 1.67-51.44-1.78-72.66-16.03-13.63-9.18-14.38-20.13-13.7-25.58 21.66 16.72 56.65 27.04 80.91 29.1Z"/><path id="am" d="M38.66 96.28c22.41 12.2 51.15 14.13 72.03 11.97 1.55 1.23 3.34 2.3 5.4 3.15.31.88 1.82 4.7 5.57 8.23-8.24 2.53-36.22 9.63-62.82-.52-11.2-4.26-19.05-11.81-20.18-22.83Z"/><path id="an" d="M69.68 126.79c27.78 5.82 52.44-3.22 55.52-4.43 2.48 1.54 5.57 2.8 9.39 3.38.17.36 1.34 2.79 3.89 5.2-4.78 2.77-21.17 11.25-41.24 10.52-14.12-.53-23.38-5.42-27.56-14.67Z"/><path id="ao" d="M141.67 133.36c3.04 1.81 7.17 3.05 12.61 2.39.6.64 1.52 1.54 2.74 2.45-4.2 4.07-15.32 13.46-30.94 16.16-11.73 2.05-19.77-.79-25.39-8.52 19.28-.34 35.81-9.04 40.98-12.48Z"/><path id="ap" d="M125.59 158.95c18.28-2.49 30.55-14.06 34.8-18.67 3.04 1.49 7.01 2.44 11.69 1.36.59.62 1.71 1.29 3.17 1.85-4.26 5.86-18.96 23.58-39.31 21.03-4.17-.53-8.02-2.96-10.35-5.57Z"/><path id="aq" d="M179.34 144.54c3.1.44 6.74.23 10.2-1.39-.52 2.36-.93 4.55-1.18 6.56-4.11.8-7.89 3.29-10.64 7.08-5.38 7.39-8.28 10.62-15.45 12.95-.05.01-.1.03-.15.04-4.16-.26-7.36-1.48-9.54-2.64 14.33-5 23.99-18.34 26.76-22.6Z"/><path id="ar" d="M151.9 184.48c1.22-3.77 2.83-7.49 11.8-10.4 2.74-.89 4.97-1.93 6.93-3.19 5.25 3.61 20.47 14.04 34.25 23.48-.84 1.6-1.56 3.26-2.19 4.96-3.4-1.15-30.66-10.33-34.07-11.48a1.955 1.955 0 1 0-1.21 3.72c3.43 1.08 30.88 9.67 34.31 10.75-.49 1.72-.87 3.49-1.14 5.3-16.71-.46-35.14-.98-41.51-1.14-.85-2.18-2.05-4.32-3.73-6.65-5.55-7.62-4.67-11.59-3.44-15.35Z"/><path id="as" d="M161.08 222.04c.01-4.92-.15-8.73-.97-12.21 6.97.13 24.28.46 40.13.74-.09 1.13-.14 2.27-.14 3.41 0 .84.03 1.68.08 2.5l-25.2 3.61c-.49.06-.93.34-1.18.72-.3.42-.44.89-.36 1.39.07.5.33.89.73 1.18.16.14.34.22.53.28.28.09.56.13.85.07l24.91-4.2c.24 1.86.61 3.69 1.09 5.47-2.53.78-22.75 7.03-25.28 7.81-3.63 1.18-7.59 1.02-10.39-.99-3-2.19-4.76-5.45-4.8-9.78Z"/><path id="at" d="M170.07 244.7c1.08-3.26 4.19-5.72 7.82-6.9 2.5-.86 22.54-7.69 25.04-8.54.67 1.75 1.45 3.44 2.34 5.06-2.26 1.13-20.36 10.13-22.63 11.25-.26.13-.47.32-.64.56-.12.16-.22.33-.27.54-.14.46-.13.94.11 1.37.22.45.62.75 1.1.91.43.17.95.14 1.39-.1l22.5-11.9c1.06 1.67 2.24 3.25 3.52 4.74-12.65 9.56-26.46 20-32.02 24.19-1.39-3.29-3.5-6.46-6.39-10.44-2.52-3.52-3.01-7.2-1.87-10.74Z"/><path id="au" d="M202.24 292.7c-8.96 2.92-12.46.85-15.66-1.48-3.2-2.32-6.25-5-6.24-14.43-.01-2.88-.29-5.32-.89-7.58 5.05-3.88 19.68-15.13 32.92-25.32 1.27 1.29 2.62 2.49 4.04 3.61-2.14 2.89-19.31 25.98-21.45 28.86-.63.87-.45 2.11.43 2.74.88.64 2.11.43 2.74-.43l20.82-29.32c1.5 1 3.06 1.92 4.68 2.73-5.6 15.75-11.78 33.12-13.91 39.12-2.32.14-4.74.61-7.48 1.5Z"/><path id="av" d="M240.09 282.98c-.01 3.82-1.39 7.54-4.16 9.57-3.01 2.18-6.66 2.85-10.79 1.55-4.68-1.53-8.34-2.55-11.9-2.85 2.27-6.58 7.93-22.95 13.1-37.93 1.81.76 3.68 1.39 5.6 1.89-.43 2.5-3.92 22.56-4.36 25.07-.09.48.03.99.33 1.35.3.41.71.68 1.21.77.49.08.95-.04 1.34-.33.19-.11.32-.26.44-.42.16-.23.28-.49.33-.78l3.7-25c1.8.33 3.65.56 5.53.65-.07 5.29-.3 21.17-.37 26.46Z"/><path id="aw" d="M240.75 135.45c.04 3.59.34 32.37.38 35.96-1.82.07-3.63.25-5.39.54-4.72-16.03-9.94-33.72-11.74-39.83 1.8-1.47 3.47-3.28 5.17-5.61 5.53-7.63 9.58-8 13.54-8 3.95 0 7.99.37 13.52 8 1.71 2.33 3.38 4.14 5.18 5.61-1.8 6.11-7.02 23.8-11.74 39.83-1.77-.29-3.57-.47-5.4-.54.04-3.59.35-32.37.39-35.96 0-1.07-.86-1.96-1.95-1.96-1.09 0-1.96.89-1.96 1.96Z"/><path id="ax" d="M249.48 292.55c-2.77-2.03-4.15-5.75-4.15-9.57-.04-2.64-.35-23.81-.39-26.46 1.89-.09 3.73-.32 5.54-.65l3.7 25c.04.29.17.55.34.78.11.16.24.31.43.42.39.29.85.41 1.34.33.5-.09.91-.36 1.21-.77.3-.36.42-.87.33-1.35-.44-2.51-3.93-22.57-4.36-25.07 1.92-.5 3.79-1.13 5.6-1.89 5.17 14.98 10.83 31.35 13.1 37.93-3.56.3-7.22 1.32-11.91 2.85-4.12 1.3-7.77.63-10.78-1.55Z"/><path id="ay" d="M298.83 291.22c-3.21 2.33-6.7 4.4-15.66 1.48-2.75-.89-5.16-1.36-7.48-1.5-2.13-6-8.31-23.37-13.91-39.12 1.62-.81 3.18-1.73 4.68-2.73l20.82 29.32c.63.86 1.86 1.07 2.74.43.88-.63 1.06-1.87.43-2.74-2.14-2.88-19.31-25.97-21.46-28.86 1.43-1.12 2.78-2.33 4.05-3.61 13.25 10.19 27.86 21.44 32.91 25.32-.59 2.26-.88 4.7-.88 7.58.01 9.43-3.04 12.11-6.24 14.43Z"/><path id="az" d="M307.08 265.88c-5.56-4.19-19.37-14.63-32.03-24.19 1.28-1.49 2.46-3.08 3.53-4.74l22.51 11.9c.43.24.95.27 1.38.1.48-.16.88-.46 1.1-.91.24-.43.25-.91.11-1.37-.05-.21-.15-.38-.27-.54-.17-.24-.38-.43-.64-.56-2.27-1.12-20.37-10.12-22.63-11.25.89-1.62 1.67-3.31 2.34-5.06 2.5.85 22.53 7.68 25.04 8.54 3.63 1.18 6.74 3.64 7.82 6.9 1.14 3.54.65 7.22-1.87 10.74-2.9 3.98-5 7.15-6.39 10.44Z"/><path id="aA" d="M319.52 231.82c-2.79 2.01-6.75 2.17-10.38.99-2.53-.78-22.75-7.03-25.27-7.81.47-1.78.83-3.61 1.08-5.47 2.49.42 22.42 3.78 24.92 4.2.28.06.56.02.84-.07.19-.06.37-.14.53-.28.4-.29.66-.68.73-1.18.08-.5-.07-.97-.35-1.39-.26-.38-.7-.66-1.19-.72l-25.2-3.61c.04-.82.07-1.66.07-2.5 0-1.14-.04-2.28-.13-3.41 15.85-.28 33.16-.61 40.13-.74-.82 3.48-.98 7.29-.98 12.21-.03 4.33-1.79 7.59-4.8 9.78Z"/><path id="aB" d="M326.33 206.48c-6.36.16-24.79.68-41.5 1.14a43.73 43.73 0 0 0-1.14-5.3c3.43-1.08 30.88-9.67 34.31-10.75 1.01-.32 1.6-1.43 1.26-2.46a1.973 1.973 0 0 0-2.48-1.26c-3.4 1.15-30.66 10.33-34.06 11.48-.63-1.7-1.36-3.36-2.19-4.96 13.78-9.44 28.99-19.87 34.25-23.48 1.96 1.26 4.19 2.3 6.93 3.19 8.97 2.91 10.58 6.63 11.8 10.4 1.23 3.76 2.11 7.73-3.43 15.35-1.69 2.33-2.89 4.47-3.75 6.65Z"/><path id="aC" d="M323.14 169.74c-7.17-2.33-10.07-5.56-15.45-12.95-2.75-3.79-6.52-6.28-10.65-7.08-.25-2.01-.65-4.2-1.18-6.56 3.46 1.62 7.11 1.83 10.21 1.39 2.77 4.26 12.42 17.6 26.76 22.6-2.18 1.16-5.38 2.38-9.53 2.64-.06-.01-.11-.03-.16-.04Z"/><path id="aD" d="M310.16 143.49c1.47-.56 2.58-1.23 3.17-1.85 4.68 1.08 8.64.13 11.7-1.36 4.24 4.61 16.52 16.18 34.79 18.67-2.33 2.61-6.18 5.04-10.35 5.57-20.35 2.55-35.05-15.17-39.31-21.03Z"/><path id="aE" d="M328.4 138.2c1.21-.91 2.13-1.81 2.73-2.45 5.44.66 9.57-.58 12.61-2.39 5.16 3.44 21.7 12.14 40.97 12.48-5.62 7.73-13.64 10.57-25.39 8.52-15.61-2.7-26.74-12.09-30.92-16.16Z"/><path id="aF" d="M346.94 130.94c2.54-2.41 3.71-4.84 3.88-5.2 3.82-.58 6.91-1.84 9.4-3.38 3.07 1.21 27.73 10.25 55.5 4.43-4.17 9.25-13.43 14.14-27.56 14.67-20.07.73-36.45-7.75-41.22-10.52Z"/><path id="aG" d="M363.75 119.63c3.74-3.53 5.26-7.35 5.57-8.23 2.06-.85 3.85-1.92 5.4-3.15 20.88 2.16 49.62.23 72.03-11.97-1.13 11.02-8.98 18.57-20.18 22.83-26.61 10.15-54.58 3.05-62.82.52Z"/><path id="aH" d="M447.62 106.26Z"/><path id="aI" d="M378.11 104.88c3.01-3.74 4.62-8.22 5.45-12.51 24.26-2.06 59.25-12.38 80.91-29.1.68 5.45-.07 16.4-13.7 25.58-21.22 14.25-50.71 17.7-72.66 16.03Z"/><path id="aJ" d="M387.31 88.29c5.52-5.42 6.47-11.93 6.64-14.25 38.44-11.95 66.99-31.27 80.17-43.03 1.91 5.32 3.24 15.51-8.43 25.73-18.77 16.46-53.18 28.45-78.38 31.55Z"/><path id="aK" d="M354.14 78.73c-.37-.81-3.4-7.27-3.78-8.07 47.67-3.43 99.41-29.66 129.71-60.51 1.02 3.15.44 9-4.59 13.87-13.86 13.41-58.15 47.04-121.34 54.71Z"/><path id="aL" d="M226.78 11.96h.01-.01Z"/><path id="aM" d="M226.78 11.96h.01-.01Z"/></defs><use xlink:href="#a" fill="#a15d16"/><use xlink:href="#a" fill-opacity="0" stroke="#000" stroke-opacity="0"/><use xlink:href="#b" fill="#2350a9"/><use xlink:href="#b" fill-opacity="0" stroke="#000" stroke-opacity="0"/><use xlink:href="#c" fill="#a15d16"/><use xlink:href="#c" fill-opacity="0" stroke="#000" stroke-opacity="0"/><use xlink:href="#d" fill="#ed192e"/><use xlink:href="#d" fill-opacity="0" stroke="#000" stroke-opacity="0"/><use xlink:href="#e" fill="#fbc707"/><use xlink:href="#e" fill-opacity="0" stroke="#000" stroke-opacity="0"/><use xlink:href="#f" fill="#fbc707"/><use xlink:href="#f" fill-opacity="0" stroke="#000" stroke-opacity="0"/><use xlink:href="#g" fill="#fbc707"/><use xlink:href="#g" fill-opacity="0" stroke="#000" stroke-opacity="0"/><use xlink:href="#h" fill="#fbc707"/><use xlink:href="#h" fill-opacity="0" stroke="#000" stroke-opacity="0"/><use xlink:href="#i" fill="#fbc707"/><use xlink:href="#i" fill-opacity="0" stroke="#000" stroke-opacity="0"/><use xlink:href="#j" fill="#fbc707"/><use xlink:href="#j" fill-opacity="0" stroke="#000" stroke-opacity="0"/><use xlink:href="#k" fill="#fbc707"/><use xlink:href="#k" fill-opacity="0" stroke="#000" stroke-opacity="0"/><use xlink:href="#l" fill="#fbc707"/><use xlink:href="#l" fill-opacity="0" stroke="#000" stroke-opacity="0"/><use xlink:href="#m" fill="#fbc707"/><use xlink:href="#m" fill-opacity="0" stroke="#000" stroke-opacity="0"/><use xlink:href="#n" fill="#fbc707"/><use xlink:href="#n" fill-opacity="0" stroke="#000" stroke-opacity="0"/><use xlink:href="#o" fill="#fbc707"/><use xlink:href="#o" fill-opacity="0" stroke="#000" stroke-opacity="0"/><use xlink:href="#p" fill="#fbc707"/><use xlink:href="#p" fill-opacity="0" stroke="#000" stroke-opacity="0"/><use xlink:href="#q" fill="#fbc707"/><use xlink:href="#q" fill-opacity="0" stroke="#000" stroke-opacity="0"/><use xlink:href="#r" fill="#fbc707"/><use xlink:href="#r" fill-opacity="0" stroke="#000" stroke-opacity="0"/><use xlink:href="#s" fill="#fbc707"/><use xlink:href="#s" fill-opacity="0" stroke="#000" stroke-opacity="0"/><use xlink:href="#t" fill="#fbc707"/><use xlink:href="#t" fill-opacity="0" stroke="#000" stroke-opacity="0"/><use xlink:href="#u" fill="#fbc707"/><use xlink:href="#u" fill-opacity="0" stroke="#000" stroke-opacity="0"/><use xlink:href="#v" fill="#fbc707"/><use xlink:href="#v" fill-opacity="0" stroke="#000" stroke-opacity="0"/><use xlink:href="#w" fill="#fbc707"/><use xlink:href="#w" fill-opacity="0" stroke="#000" stroke-opacity="0"/><use xlink:href="#x" fill="#fbc707"/><use xlink:href="#x" fill-opacity="0" stroke="#000" stroke-opacity="0"/><use xlink:href="#y" fill="#fbc707"/><use xlink:href="#y" fill-opacity="0" stroke="#000" stroke-opacity="0"/><use xlink:href="#z" fill="#fbc707"/><use xlink:href="#z" fill-opacity="0" stroke="#000" stroke-opacity="0"/><use xlink:href="#A" fill="#fbc707"/><use xlink:href="#A" fill-opacity="0" stroke="#000" stroke-opacity="0"/><use xlink:href="#B" fill="#fbc707"/><use xlink:href="#B" fill-opacity="0" stroke="#000" stroke-opacity="0"/><use xlink:href="#C" fill="#fbc707"/><use xlink:href="#C" fill-opacity="0" stroke="#000" stroke-opacity="0"/><use xlink:href="#D" fill="#fbc707"/><use xlink:href="#D" fill-opacity="0" stroke="#000" stroke-opacity="0"/><use xlink:href="#E" fill="#fbc707"/><use xlink:href="#E" fill-opacity="0" stroke="#000" stroke-opacity="0"/><use xlink:href="#F" fill="#fbc707"/><use xlink:href="#F" fill-opacity="0" stroke="#000" stroke-opacity="0"/><use xlink:href="#G" fill="#fbc707"/><use xlink:href="#G" fill-opacity="0" stroke="#000" stroke-opacity="0"/><use xlink:href="#H" fill="#fbc707"/><use xlink:href="#H" fill-opacity="0" stroke="#000" stroke-opacity="0"/><use xlink:href="#I" fill="#fbc707"/><use xlink:href="#I" fill-opacity="0" stroke="#000" stroke-opacity="0"/><use xlink:href="#J" fill="#fbc707"/><use xlink:href="#J" fill-opacity="0" stroke="#000" stroke-opacity="0"/><use xlink:href="#K" fill="#fbc707"/><use xlink:href="#K" fill-opacity="0" stroke="#000" stroke-opacity="0"/><use xlink:href="#L" fill="#fbc707"/><use xlink:href="#L" fill-opacity="0" stroke="#000" stroke-opacity="0"/><use xlink:href="#M" fill="#fbc707"/><use xlink:href="#M" fill-opacity="0" stroke="#000" stroke-opacity="0"/><use xlink:href="#N" fill="#fbc707"/><use xlink:href="#N" fill-opacity="0" stroke="#000" stroke-opacity="0"/><use xlink:href="#O" fill="#fbc707"/><use xlink:href="#O" fill-opacity="0" stroke="#000" stroke-opacity="0"/><use xlink:href="#P" fill="#fbc707"/><use xlink:href="#P" fill-opacity="0" stroke="#000" stroke-opacity="0"/><use xlink:href="#Q" fill="#fbc707"/><use xlink:href="#Q" fill-opacity="0" stroke="#000" stroke-opacity="0"/><use xlink:href="#R" fill="#fbc707"/><use xlink:href="#R" fill-opacity="0" stroke="#000" stroke-opacity="0"/><use xlink:href="#S" fill="#fbc707"/><use xlink:href="#S" fill-opacity="0" stroke="#000" stroke-opacity="0"/><use xlink:href="#T" fill="#fbc707"/><use xlink:href="#T" fill-opacity="0" stroke="#000" stroke-opacity="0"/><use xlink:href="#U" fill="#fbc707"/><use xlink:href="#U" fill-opacity="0" stroke="#000" stroke-opacity="0"/><use xlink:href="#V" fill="#fbc707"/><use xlink:href="#V" fill-opacity="0" stroke="#000" stroke-opacity="0"/><use xlink:href="#W" fill="#fbc707"/><use xlink:href="#W" fill-opacity="0" stroke="#000" stroke-opacity="0"/><use xlink:href="#X" fill="#fbc707"/><use xlink:href="#X" fill-opacity="0" stroke="#000" stroke-opacity="0"/><use xlink:href="#Y" fill="#fbc707"/><use xlink:href="#Y" fill-opacity="0" stroke="#000" stroke-opacity="0"/><use xlink:href="#Z" fill="#fbc707"/><use xlink:href="#Z" fill-opacity="0" stroke="#000" stroke-opacity="0"/><use xlink:href="#aa" fill="#fbc707"/><use xlink:href="#aa" fill-opacity="0" stroke="#000" stroke-opacity="0"/><use xlink:href="#ab" fill="#fbc707"/><use xlink:href="#ab" fill-opacity="0" stroke="#000" stroke-opacity="0"/><use xlink:href="#ac" fill="#fbc707"/><use xlink:href="#ac" fill-opacity="0" stroke="#000" stroke-opacity="0"/><use xlink:href="#ad" fill="#fbc707"/><use xlink:href="#ad" fill-opacity="0" stroke="#000" stroke-opacity="0"/><use xlink:href="#ae" fill="#fbc707"/><use xlink:href="#ae" fill-opacity="0" stroke="#000" stroke-opacity="0"/><use xlink:href="#af" fill="#fbc707"/><use xlink:href="#af" fill-opacity="0" stroke="#000" stroke-opacity="0"/><use xlink:href="#ag" fill="#fbc707"/><use xlink:href="#ag" fill-opacity="0" stroke="#000" stroke-opacity="0"/><use xlink:href="#ah" fill="#fbc707"/><use xlink:href="#ah" fill-opacity="0" stroke="#000" stroke-opacity="0"/><use xlink:href="#ai" fill="#fbc707"/><use xlink:href="#ai" fill-opacity="0" stroke="#000" stroke-opacity="0"/><use xlink:href="#aj" fill="#fbc707"/><use xlink:href="#aj" fill-opacity="0" stroke="#000" stroke-opacity="0"/><use xlink:href="#ak" fill="#fbc707"/><use xlink:href="#ak" fill-opacity="0" stroke="#000" stroke-opacity="0"/><use xlink:href="#al" fill="#fbc707"/><use xlink:href="#al" fill-opacity="0" stroke="#000" stroke-opacity="0"/><use xlink:href="#am" fill="#fbc707"/><use xlink:href="#am" fill-opacity="0" stroke="#000" stroke-opacity="0"/><use xlink:href="#an" fill="#fbc707"/><use xlink:href="#an" fill-opacity="0" stroke="#000" stroke-opacity="0"/><use xlink:href="#ao" fill="#fbc707"/><use xlink:href="#ao" fill-opacity="0" stroke="#000" stroke-opacity="0"/><use xlink:href="#ap" fill="#fbc707"/><use xlink:href="#ap" fill-opacity="0" stroke="#000" stroke-opacity="0"/><use xlink:href="#aq" fill="#fbc707"/><use xlink:href="#aq" fill-opacity="0" stroke="#000" stroke-opacity="0"/><use xlink:href="#ar" fill="#fbc707"/><use xlink:href="#ar" fill-opacity="0" stroke="#000" stroke-opacity="0"/><use xlink:href="#as" fill="#fbc707"/><use xlink:href="#as" fill-opacity="0" stroke="#000" stroke-opacity="0"/><use xlink:href="#at" fill="#fbc707"/><use xlink:href="#at" fill-opacity="0" stroke="#000" stroke-opacity="0"/><use xlink:href="#au" fill="#fbc707"/><use xlink:href="#au" fill-opacity="0" stroke="#000" stroke-opacity="0"/><use xlink:href="#av" fill="#fbc707"/><use xlink:href="#av" fill-opacity="0" stroke="#000" stroke-opacity="0"/><use xlink:href="#aw" fill="#fbc707"/><use xlink:href="#aw" fill-opacity="0" stroke="#000" stroke-opacity="0"/><use xlink:href="#ax" fill="#fbc707"/><use xlink:href="#ax" fill-opacity="0" stroke="#000" stroke-opacity="0"/><use xlink:href="#ay" fill="#fbc707"/><use xlink:href="#ay" fill-opacity="0" stroke="#000" stroke-opacity="0"/><use xlink:href="#az" fill="#fbc707"/><use xlink:href="#az" fill-opacity="0" stroke="#000" stroke-opacity="0"/><use xlink:href="#aA" fill="#fbc707"/><use xlink:href="#aA" fill-opacity="0" stroke="#000" stroke-opacity="0"/><use xlink:href="#aB" fill="#fbc707"/><use xlink:href="#aB" fill-opacity="0" stroke="#000" stroke-opacity="0"/><use xlink:href="#aC" fill="#fbc707"/><use xlink:href="#aC" fill-opacity="0" stroke="#000" stroke-opacity="0"/><use xlink:href="#aD" fill="#fbc707"/><use xlink:href="#aD" fill-opacity="0" stroke="#000" stroke-opacity="0"/><use xlink:href="#aE" fill="#fbc707"/><use xlink:href="#aE" fill-opacity="0" stroke="#000" stroke-opacity="0"/><use xlink:href="#aF" fill="#fbc707"/><use xlink:href="#aF" fill-opacity="0" stroke="#000" stroke-opacity="0"/><use xlink:href="#aG" fill="#fbc707"/><use xlink:href="#aG" fill-opacity="0" stroke="#000" stroke-opacity="0"/><use xlink:href="#aH" fill="#fbc707"/><use xlink:href="#aH" fill-opacity="0" stroke="#000" stroke-opacity="0"/><use xlink:href="#aI" fill="#fbc707"/><use xlink:href="#aI" fill-opacity="0" stroke="#000" stroke-opacity="0"/><use xlink:href="#aJ" fill="#fbc707"/><use xlink:href="#aJ" fill-opacity="0" stroke="#000" stroke-opacity="0"/><use xlink:href="#aK" fill="#fbc707"/><use xlink:href="#aK" fill-opacity="0" stroke="#000" stroke-opacity="0"/><use xlink:href="#aL" fill="#fbc707"/><use xlink:href="#aL" fill-opacity="0" stroke="#000" stroke-opacity="0"/><use xlink:href="#aM" fill="#fbc707"/><use xlink:href="#aM" fill-opacity="0" stroke="#000" stroke-opacity="0"/></svg>